<svg width="937" height="312" viewBox="0 0 937 312" fill="none" xmlns="http://www.w3.org/2000/svg">
<path d="M248.86 87.9801C248.86 95.3468 247.16 101.58 243.76 106.68C240.36 111.667 234.863 114.16 227.27 114.16C219.677 114.16 214.067 111.78 210.44 107.02C206.813 102.26 205 96.4801 205 89.68C205 78.5733 210.27 69.7333 220.81 63.16C231.35 56.5867 248.123 53.3 271.13 53.3C311.137 53.3 331.14 64.8601 331.14 87.9801C331.14 99.5401 325.757 107.7 314.99 112.46C321.563 114.727 326.777 118.467 330.63 123.68C334.483 128.78 336.41 134.957 336.41 142.21C336.41 151.957 332.953 160.003 326.04 166.35C319.127 172.583 309.04 175.7 295.78 175.7C293.287 175.7 287.507 175.417 278.44 174.85C269.373 174.283 262.12 174 256.68 174H240.19V161.25H256.68V66.56C242.853 67.58 233.05 70.0168 227.27 73.8701C221.49 77.7234 218.6 82.9934 218.6 89.68C218.6 93.08 219.337 95.9133 220.81 98.18C222.283 100.333 224.437 101.41 227.27 101.41C232.597 101.41 235.26 96.9334 235.26 87.9801H248.86ZM279.63 120.11V107.36H296.46C302.24 107.36 307.057 105.66 310.91 102.26C314.763 98.8601 316.69 94.1001 316.69 87.9801C316.69 80.5001 313.233 75.0033 306.32 71.49C299.407 67.8633 287.677 66.0501 271.13 66.0501V161.76C285.183 162.553 294.25 162.95 298.33 162.95C305.47 162.95 311.193 161.08 315.5 157.34C319.807 153.487 321.96 148.16 321.96 141.36C321.96 134.56 319.75 129.347 315.33 125.72C311.023 121.98 305.357 120.11 298.33 120.11H279.63ZM415.367 125.72V134.73H355.357C355.924 143.003 358.36 149.803 362.667 155.13C366.974 160.343 372.754 162.95 380.007 162.95C384.767 162.95 389.017 162.44 392.757 161.42C396.61 160.4 399.274 159.493 400.747 158.7C402.22 157.793 404.26 156.49 406.867 154.79L413.157 164.31C404.544 171.903 393.777 175.7 380.857 175.7C367.937 175.7 358.02 171.563 351.107 163.29C344.307 154.903 340.907 144.307 340.907 131.5C340.907 118.693 344.307 108.153 351.107 99.88C358.02 91.4933 367.37 87.3001 379.157 87.3001C391.057 87.3001 400.067 90.8701 406.187 98.0101C412.307 105.15 415.367 114.387 415.367 125.72ZM400.917 122.66C400.237 115.747 398.14 110.25 394.627 106.17C391.227 102.09 386.297 100.05 379.837 100.05C373.49 100.05 368.277 102.147 364.197 106.34C360.117 110.42 357.397 115.86 356.037 122.66H400.917ZM455.815 87.9801C455.815 95.3468 454.115 101.58 450.715 106.68C447.315 111.667 441.818 114.16 434.225 114.16C426.632 114.16 421.022 111.78 417.395 107.02C413.768 102.26 411.955 96.4801 411.955 89.68C411.955 78.5733 417.225 69.7333 427.765 63.16C438.305 56.5867 455.078 53.3 478.085 53.3C518.092 53.3 538.095 64.8601 538.095 87.9801C538.095 99.5401 532.712 107.7 521.945 112.46C528.518 114.727 533.732 118.467 537.585 123.68C541.438 128.78 543.365 134.957 543.365 142.21C543.365 151.957 539.908 160.003 532.995 166.35C526.082 172.583 515.995 175.7 502.735 175.7C500.242 175.7 494.462 175.417 485.395 174.85C476.328 174.283 469.075 174 463.635 174H447.145V161.25H463.635V66.56C449.808 67.58 440.005 70.0168 434.225 73.8701C428.445 77.7234 425.555 82.9934 425.555 89.68C425.555 93.08 426.292 95.9133 427.765 98.18C429.238 100.333 431.392 101.41 434.225 101.41C439.552 101.41 442.215 96.9334 442.215 87.9801H455.815ZM486.585 120.11V107.36H503.415C509.195 107.36 514.012 105.66 517.865 102.26C521.718 98.8601 523.645 94.1001 523.645 87.9801C523.645 80.5001 520.188 75.0033 513.275 71.49C506.362 67.8633 494.632 66.0501 478.085 66.0501V161.76C492.138 162.553 501.205 162.95 505.285 162.95C512.425 162.95 518.148 161.08 522.455 157.34C526.762 153.487 528.915 148.16 528.915 141.36C528.915 134.56 526.705 129.347 522.285 125.72C517.978 121.98 512.312 120.11 505.285 120.11H486.585ZM622.322 125.72V134.73H562.312C562.879 143.003 565.315 149.803 569.622 155.13C573.929 160.343 579.709 162.95 586.962 162.95C591.722 162.95 595.972 162.44 599.712 161.42C603.565 160.4 606.229 159.493 607.702 158.7C609.175 157.793 611.215 156.49 613.822 154.79L620.112 164.31C611.499 171.903 600.732 175.7 587.812 175.7C574.892 175.7 564.975 171.563 558.062 163.29C551.262 154.903 547.862 144.307 547.862 131.5C547.862 118.693 551.262 108.153 558.062 99.88C564.975 91.4933 574.325 87.3001 586.112 87.3001C598.012 87.3001 607.022 90.8701 613.142 98.0101C619.262 105.15 622.322 114.387 622.322 125.72ZM607.872 122.66C607.192 115.747 605.095 110.25 601.582 106.17C598.182 102.09 593.252 100.05 586.792 100.05C580.445 100.05 575.232 102.147 571.152 106.34C567.072 110.42 564.352 115.86 562.992 122.66H607.872ZM649 175.7C641.18 175.7 635.06 173.49 630.64 169.07C626.22 164.537 624.01 158.53 624.01 151.05C624.01 143.457 626.957 137.11 632.85 132.01C638.743 126.91 647.47 124.36 659.03 124.36H677.56V115.69C677.56 105.263 672.573 100.05 662.6 100.05C654.213 100.05 646.507 101.07 639.48 103.11V114.5H627.58V94.27C632.68 92.1167 638.687 90.4167 645.6 89.17C652.627 87.9233 658.463 87.3001 663.11 87.3001C672.177 87.3001 679.26 89.9068 684.36 95.1201C689.46 100.22 692.01 107.077 692.01 115.69V163.8H705.95V170.94C701.757 173.547 696.94 174.85 691.5 174.85C686.06 174.85 682.377 173.943 680.45 172.13C678.523 170.317 677.56 167.257 677.56 162.95C669.06 171.45 659.54 175.7 649 175.7ZM650.53 162.95C660.277 162.95 669.287 157.453 677.56 146.46V135.58H658.86C651.947 135.58 646.79 136.94 643.39 139.66C640.103 142.38 638.46 145.837 638.46 150.03C638.46 154.11 639.48 157.283 641.52 159.55C643.56 161.817 646.563 162.95 650.53 162.95ZM758.049 100.05V89H785.589V163.8H799.529V170.94C795.335 173.547 789.725 174.85 782.699 174.85C775.785 174.85 771.989 171.847 771.309 165.84C759.409 172.527 748.699 175.87 739.179 175.87C729.772 175.87 723.199 172.98 719.459 167.2C715.832 161.42 714.019 153.43 714.019 143.23V100.05H700.929V89H728.469V143.23C728.469 149.803 729.319 154.79 731.019 158.19C732.719 161.477 736.629 163.12 742.749 163.12C748.869 163.12 758.332 159.72 771.139 152.92V100.05H758.049ZM796.062 100.05V90.7L809.152 89H810.852C814.479 80.5 816.915 73.02 818.162 66.56H825.302V89H850.632V100.05H825.302V152.24C825.302 156.093 825.925 158.87 827.172 160.57C828.532 162.27 830.799 163.12 833.972 163.12C837.145 163.12 841.395 162.043 846.722 159.89L852.332 169.58C845.872 173.66 838.959 175.7 831.592 175.7C824.225 175.7 818.899 173.773 815.612 169.92C812.439 166.067 810.852 161.08 810.852 154.96V100.05H796.062ZM848.948 100.05V89H881.078V100.05H874.958L893.998 157.68L911.848 100.05H904.028V89H934.628V100.05H926.638L901.988 174C897.681 186.58 892.921 196.1 887.708 202.56C882.495 209.133 875.241 212.42 865.948 212.42C860.621 212.42 854.955 211.4 848.948 209.36L853.028 197.46C857.675 198.82 861.641 199.5 864.928 199.5C874.675 199.5 882.155 191.793 887.368 176.38L859.488 100.05H848.948Z" fill="white"/>
<path fill-rule="evenodd" clip-rule="evenodd" d="M739.555 231.164C722.782 222.96 705.644 214.573 687.139 212.203C635.999 205.549 591.422 250.034 541.741 264.164C494.885 277.382 449.761 230.526 400.809 229.615C354.044 228.703 306.004 252.495 262.065 236.451C233.441 225.968 214.663 199.076 191.144 179.659C179.293 169.997 162.246 162.066 149.393 170.361C142.1 175.102 138.454 183.853 135.719 192.239C129.338 211.383 124.78 231.164 122.136 251.128C121.743 254.486 120.647 257.723 118.919 260.629C117.191 263.534 114.871 266.043 112.109 267.992C101.899 275.012 93.3301 268.995 86.7667 262.614C66.4382 243.015 54.6787 216.214 46.1098 189.413C38.2844 164.984 32.6409 139.908 29.2454 114.481C25.9637 90.2326 24.961 55.3188 46.3833 43.5593C66.9852 32.3468 96.6118 42.6477 119.675 47.1145C163.431 55.3188 190.779 51.8548 208.828 23.5044C185.981 30.6179 161.52 30.6815 138.636 23.6867C117.214 17.1232 96.2472 8.00737 73.9133 5.45492C51.6705 2.72015 26.7841 8.09851 12.6545 25.5099C-2.29556 44.0151 -1.38395 70.5423 2.2624 94.0613C12.6545 161.792 39.3641 226.88 79.5651 282.304C89.0456 295.431 100.714 308.923 116.94 310.837C119.833 311.272 122.785 311.085 125.6 310.29C136.084 307.008 137.451 296.161 138.545 286.68C141.462 258.877 147.114 231.438 155.227 204.637C156.295 201.168 158.256 198.041 160.914 195.57C163.572 193.099 166.833 191.37 170.37 190.557C173.908 189.745 177.596 189.876 181.067 190.94C184.537 192.003 187.666 193.96 190.141 196.615C193.263 200.022 196.099 203.681 198.619 207.554C207.096 220.225 213.022 234.446 222.776 246.205C235.264 261.338 253.77 271.365 273.278 273.553C320.954 279.023 367.536 240.28 413.936 252.587C431.256 257.145 445.841 268.448 462.068 276.288C492.515 291.147 529.525 293.243 560.702 279.752C584.859 269.269 606.463 255.868 630.256 244.473C657.786 231.164 688.324 223.051 717.586 231.985L789.055 253.589C789.055 253.589 756.055 239.277 739.555 231.164Z" fill="url(#paint0_linear_38_2)"/>
<defs>
<linearGradient id="paint0_linear_38_2" x1="726.5" y1="240.5" x2="43" y2="232.5" gradientUnits="userSpaceOnUse">
<stop stop-color="white"/>
<stop offset="1" stop-color="#BFA45C"/>
</linearGradient>
</defs>
</svg>
